<!-- icon666.com - MILLIONS vector ICONS FREE --><svg id="Layer_1" enable-background="new 0 0 64 64" viewBox="0 0 64 64" xmlns="http://www.w3.org/2000/svg"><g><g clip-rule="evenodd" fill-rule="evenodd"><path d="m12.038 12.052c11.031-11.031 28.893-11.031 39.923 0 11.031 11.003 11.031 28.894 0 39.925-11.03 11.002-28.892 11.002-39.923 0-11.03-11.032-11.03-28.922 0-39.925z" fill="#ff000000"></path><path d="m52.104 51.805c-5.115 5.201-12.231 8.431-20.09 8.431-15.603-.001-28.235-12.632-28.235-28.236 0-9.116 4.344-17.232 11.06-22.405-.343.485-.629.942-.943 1.429-3.857 4.83-6.201 10.974-6.201 17.661 0 15.575 12.66 28.235 28.235 28.235 6.029 0 11.602-1.886 16.174-5.115z" fill="#ff000000"></path></g><g><path d="m43.053 19.604-10.99 10.99-10.574-10.562-1.413 1.416 10.573 10.56-10.573 10.573 1.414 1.414 10.574-10.574 10.989 10.975 1.413-1.416-10.987-10.973 10.988-10.988z"></path><path d="m32.015 2.765c-16.12 0-29.236 13.115-29.236 29.235s13.115 29.235 29.235 29.235c7.043 0 13.853-2.543 19.173-7.161l-1.311-1.51c-4.957 4.302-11.301 6.671-17.862 6.671-15.017 0-27.235-12.217-27.235-27.235s12.218-27.235 27.236-27.235c15.001 0 27.206 12.218 27.206 27.235 0 6.61-2.379 12.974-6.697 17.918l1.506 1.316c4.638-5.309 7.191-12.14 7.191-19.234 0-16.12-13.102-29.235-29.206-29.235z"></path></g></g></svg>